<?xml version="1.0" encoding="utf-8"?><!-- Uploaded to: SVG Repo, www.svgrepo.com, Generator: SVG Repo Mixer Tools -->
<svg width="800px" height="800px" viewBox="0 0 24 24" id="share-alt-2" xmlns="http://www.w3.org/2000/svg" class="icon multi-color"><path id="secondary-stroke" d="M15.3,16.65,8.68,13.34m0-2.68L15.3,7.35" style="fill: none; stroke: rgb(44, 169, 188); stroke-linecap: round; stroke-linejoin: round; stroke-width: 2;"></path><path id="tertiary-fill" d="M6,9a3,3,0,1,1-3,3A3,3,0,0,1,6,9Zm9,9a3,3,0,1,0,3-3A3,3,0,0,0,15,18Zm3-9a3,3,0,1,0-3-3A3,3,0,0,0,18,9Z" style="fill: #b7b7b7; stroke-width: 2;"></path><path id="primary-stroke" d="M6,9a3,3,0,1,1-3,3A3,3,0,0,1,6,9Zm9,9a3,3,0,1,0,3-3A3,3,0,0,0,15,18Zm3-9a3,3,0,1,0-3-3A3,3,0,0,0,18,9Z" style="fill: none; stroke: rgb(0, 0, 0); stroke-linecap: round; stroke-linejoin: round; stroke-width: 2;"></path></svg>