<svg xmlns="http://www.w3.org/2000/svg" viewBox="0 0 96 112" role="img" aria-label="Eventra">
  <defs>
    <linearGradient id="gpin-fav" x1="0%" y1="0%" x2="100%" y2="100%">
      <stop offset="0%" stop-color="#9B7CFF"/>
      <stop offset="100%" stop-color="#C084FC"/>
    </linearGradient>
    <linearGradient id="ginner-fav" x1="0%" y1="0%" x2="100%" y2="100%">
      <stop offset="0%" stop-color="#7C5CFF"/>
      <stop offset="100%" stop-color="#A78BFA"/>
    </linearGradient>
  </defs>
  <ellipse cx="48" cy="106" rx="18" ry="5" fill="#7C5CFF" opacity="0.14"/>
  <path d="M48 3 C27 3 8 20 8 41 C8 67 48 105 48 105 C48 105 88 67 88 41 C88 20 69 3 48 3Z" fill="url(#gpin-fav)"/>
  <path d="M48 11 C30 11 14 26 14 41 C14 59 28 79 38 93 C42 85 48 76 48 76 C48 76 54 85 58 93 C68 79 82 59 82 41 C82 26 66 11 48 11Z" fill="url(#ginner-fav)" opacity="0.35"/>
  <circle cx="48" cy="41" r="20" fill="white" opacity="0.97"/>
  <rect x="37" y="31" width="22" height="3" rx="1.5" fill="#7C5CFF" opacity="0.18"/>
  <rect x="37" y="36" width="7" height="13" rx="2" fill="url(#ginner-fav)"/>
  <rect x="46" y="36" width="13" height="6" rx="2" fill="url(#ginner-fav)"/>
  <rect x="46" y="44" width="13" height="5" rx="2" fill="url(#ginner-fav)" opacity="0.45"/>
  <circle cx="72" cy="22" r="5" fill="#E879F9"/>
  <circle cx="80" cy="35" r="3.5" fill="#C084FC" opacity="0.9"/>
  <circle cx="76" cy="10" r="2.8" fill="#E879F9" opacity="0.85"/>
  <circle cx="85" cy="22" r="1.6" fill="#C084FC" opacity="0.65"/>
  <line x1="72" y1="22" x2="80" y2="35" stroke="#C084FC" stroke-width="1.5" opacity="0.5"/>
  <line x1="72" y1="22" x2="76" y2="10" stroke="#E879F9" stroke-width="1.5" opacity="0.5"/>
  <line x1="76" y1="10" x2="85" y2="22" stroke="#C084FC" stroke-width="1.2" opacity="0.35"/>
</svg>
